<svg width="228" height="22" fill="none" xmlns="http://www.w3.org/2000/svg"><path d="M1.179 21.467a187.187 187.187 0 015.348-1.954l-.33-.944a188.297 188.297 0 00-5.376 1.964l.358.934zm16.276-5.468a304.832 304.832 0 0111.071-3.057l-.248-.969A305.746 305.746 0 0017.17 15.04l.285.959zm22.23-5.718c3.616-.8 7.366-1.57 11.236-2.298L50.736 7c-3.88.731-7.64 1.503-11.268 2.305l.216.976zm22.55-4.251a380.756 380.756 0 0111.378-1.61l-.125-.993c-3.885.49-7.69 1.031-11.408 1.615l.155.988zm22.772-2.874a371.11 371.11 0 0111.456-.916l-.064-.998c-3.884.25-7.716.558-11.487.919l.095.995zm22.907-1.47c3.791-.124 7.622-.188 11.487-.186v-1c-3.876-.002-7.718.062-11.519.186l.032 1zm22.951.014c3.799.131 7.622.33 11.463.6l.071-.997C138.545 1.032 134.71.833 130.9.7l-.035 1zm22.892 1.62c3.783.41 7.578.893 11.378 1.456l.146-.99a293.15 293.15 0 00-11.417-1.46l-.107.994zm22.694 3.37c3.741.713 7.481 1.507 11.215 2.388l.229-.973a265.456 265.456 0 00-11.257-2.398l-.187.983zm22.315 5.273a240.417 240.417 0 0110.957 3.4l.319-.947A241.264 241.264 0 00199.041 11l-.274.962zm21.725 7.328a220.03 220.03 0 015.313 2.17l.39-.921a223.248 223.248 0 00-5.337-2.18l-.366.93z" fill="#1A202C"/><path d="M220.49 14.2L226 21h-9.643l4.133-6.8z" fill="#1A202C" stroke="#1A202C"/></svg>