<svg width="228" height="22" fill="none" xmlns="http://www.w3.org/2000/svg"><path d="M1.179.533c1.674.642 3.458 1.295 5.348 1.954l-.33.944A188.204 188.204 0 01.821 1.467l.358-.934zm16.276 5.468a304.73 304.73 0 0011.071 3.057l-.248.969A305.744 305.744 0 0117.17 6.96l.285-.96zm22.23 5.718c3.616.8 7.366 1.57 11.236 2.298l-.185.983c-3.88-.731-7.64-1.503-11.268-2.305l.216-.976zm22.551 4.251c3.708.582 7.504 1.122 11.378 1.61l-.125.993a381.68 381.68 0 01-11.408-1.615l.155-.988zm22.772 2.874a368.2 368.2 0 0011.456.916l-.064.998c-3.884-.25-7.716-.558-11.487-.919l.095-.995zm22.907 1.47c3.791.124 7.622.188 11.487.186v1c-3.876.002-7.718-.062-11.519-.186l.032-1zm22.951-.014c3.799-.131 7.622-.33 11.463-.6l.071.997c-3.854.271-7.689.47-11.499.603l-.035-1zm22.892-1.62c3.783-.41 7.578-.893 11.378-1.456l.146.99c-3.813.564-7.621 1.05-11.417 1.46l-.107-.994zm22.694-3.37a264.722 264.722 0 0011.215-2.388l.229.973a265.455 265.455 0 01-11.257 2.398l-.187-.982zm22.315-5.273a240.417 240.417 0 0010.957-3.4l.319.947A241.264 241.264 0 01199.041 11l-.274-.962zm21.725-7.328a220.03 220.03 0 005.313-2.17l.39.921a222.03 222.03 0 01-5.337 2.18l-.366-.93z" fill="#1A202C"/><path d="M220.49 7.8L226 1h-9.643l4.133 6.8z" fill="#1A202C" stroke="#1A202C"/></svg>