<svg width="60" height="60" fill="none" xmlns="http://www.w3.org/2000/svg"><rect width="60" height="60" rx="30" fill="#EDF2F7"/><g clip-path="url(#clip0)" fill="#1A202C"><path d="M22.563 34.376a1.641 1.641 0 101.64 1.64c0-.904-.735-1.64-1.64-1.64zm0 2.187a.547.547 0 11.001-1.095.547.547 0 01-.001 1.095zm14.874-2.187c-.904 0-1.64.736-1.64 1.64a1.642 1.642 0 003.281 0c0-.904-.736-1.64-1.64-1.64zm0 2.187a.547.547 0 11.002-1.095.547.547 0 01-.002 1.095z"/><path d="M43.453 33.43v-1.79a2.737 2.737 0 00-2.734-2.734h-.81l-2.037-4.072c-.457-.914-1.193-1.396-2.13-1.396h-3.008v-1.641c0-.905-.736-1.64-1.64-1.64h-7.438a.547.547 0 100 1.093h7.438c.301 0 .547.245.547.547V33.28h-6.403a3.814 3.814 0 00-2.675-1.093c-1.04 0-1.985.417-2.676 1.093h-2.246v-1.093h.547a.547.547 0 000-1.094h-.547v-9.297c0-.302.245-.547.547-.547h.546a.547.547 0 000-1.094h-.547c-.904 0-1.64.736-1.64 1.64V33.43c-.326.19-.547.542-.547.946v1.094c0 .603.49 1.093 1.094 1.093h1.68a3.833 3.833 0 003.789 3.282 3.834 3.834 0 003.788-3.282h7.298a3.833 3.833 0 003.788 3.282 3.834 3.834 0 003.789-3.282h1.68c.603 0 1.094-.49 1.094-1.093v-1.094c0-.404-.22-.756-.547-.946zm-4.768-4.524h-3.763V26.72h2.67l1.093 2.187zm-5.95-4.375h3.007c.325 0 .797.082 1.152.792l.15.302h-2.669a.547.547 0 00-.547.547v3.281c0 .302.245.547.547.547h6.344c.713 0 1.32.457 1.546 1.094h-.453a.547.547 0 000 1.094h.547v1.093h-2.246a3.814 3.814 0 00-2.676-1.093c-1.04 0-1.984.417-2.675 1.093h-2.028v-8.75zm.914 10.938h-7.298a3.797 3.797 0 00-.33-1.094h7.959c-.162.34-.275.708-.33 1.094zm-16.555-1.094h2.01c-.161.34-.274.708-.33 1.094h-1.68v-1.094zm5.469 4.375a2.738 2.738 0 01-2.735-2.734 2.737 2.737 0 012.735-2.735 2.737 2.737 0 012.734 2.735 2.737 2.737 0 01-2.734 2.734zm14.874 0a2.737 2.737 0 01-2.734-2.734 2.737 2.737 0 012.734-2.735 2.737 2.737 0 012.735 2.735 2.738 2.738 0 01-2.735 2.734zm5.47-3.281h-1.681a3.794 3.794 0 00-.33-1.094h2.01v1.094z"/><path d="M21.195 21.25a.547.547 0 100-1.094.547.547 0 100 1.094z"/></g><defs><clipPath id="clip0"><path fill="#fff" transform="translate(16 16)" d="M0 0h28v28H0z"/></clipPath></defs></svg>