<svg width="60" height="60" fill="none" xmlns="http://www.w3.org/2000/svg"><rect width="60" height="60" rx="30" fill="#EDF2F7"/><path d="M44.5 15h-19a.5.5 0 00-.5.5V24h1v-6.382l1.553 3.106A.5.5 0 0028 21h14a.5.5 0 00.447-.276L44 17.618V38H30.5v1h14a.5.5 0 00.5-.5v-23a.5.5 0 00-.5-.5zm-18.191 1H31.5v4h-3.191l-2-4zm15.382 4H32.5v-4h11.191l-2 4z" fill="#1A202C"/><path d="M35 16.5a1.5 1.5 0 100 3 1.5 1.5 0 000-3zm0 2a.5.5 0 110-1 .5.5 0 010 1zm6-2h-3a.5.5 0 00-.5.5v2a.5.5 0 00.5.5h3a.5.5 0 00.5-.5v-2a.5.5 0 00-.5-.5zm-.5 2h-2v-1h2v1zm-12-1h2v1h-2v-1zM33 40h-3.5V25.5a.5.5 0 00-.5-.5H15.5a.5.5 0 00-.5.5v17a2.503 2.503 0 002.5 2.5H31a2.503 2.503 0 002.5-2.5v-2a.5.5 0 00-.5-.5zm-15.5 4a1.502 1.502 0 01-1.5-1.5V26h12.5v16.5c0 .541.175 1.068.501 1.5H17.5zm15-1.5a1.5 1.5 0 11-3 0V41h3v1.5z" fill="#1A202C"/><path d="M22 32a1.5 1.5 0 100-3v1a.5.5 0 11-.5.5h-1A1.502 1.502 0 0022 32z" fill="#1A202C"/><path d="M18 35h1.14l.386 1.158a.5.5 0 00.903.1l1.358-2.265a3.566 3.566 0 00.426 0l1.358 2.264a.5.5 0 00.903-.099L24.86 35H26a.5.5 0 00.429-.757l-1.303-2.172a3.5 3.5 0 10-6.252 0l-1.303 2.172A.501.501 0 0018 35zm7.117-1H24.5a.5.5 0 00-.474.342l-.157.468-.624-1.04c.469-.18.893-.457 1.245-.814L25.117 34zM22 28a2.5 2.5 0 110 5 2.5 2.5 0 010-5zm-1.245 5.77l-.624 1.04-.157-.468A.5.5 0 0019.5 34h-.617l.627-1.044a3.51 3.51 0 001.245.814zM17 37h1.5v1H17v-1zm2.5 0h1v1h-1v-1zm1 2h4v1h-4v-1zm5 0h2v1h-2v-1zm-8 2H21v1h-3.5v-1zm4.5 0h5.5v1H22v-1zm21-11.5a7.5 7.5 0 00-12.857-5.249l.714.7a6.499 6.499 0 11.094 9.192l-.7.714A7.5 7.5 0 0043 29.5z" fill="#1A202C"/><path d="M37.062 30.11a2.487 2.487 0 00-3.125 0 1.493 1.493 0 01-1.875 0l-1.25-1-.625.78 1.25 1a2.488 2.488 0 003.125 0 1.492 1.492 0 011.875 0 2.488 2.488 0 003.125 0l.285-.227a4.5 4.5 0 01-8.397.8l-.9.437a5.5 5.5 0 100-4.8l.9.436a4.5 4.5 0 018.544 1.729l-1.057.845a1.493 1.493 0 01-1.875 0z" fill="#1A202C"/></svg>