<svg width="55" height="16" fill="none" xmlns="http://www.w3.org/2000/svg"><path fill-rule="evenodd" clip-rule="evenodd" d="M14.82 0v.007c-.006 0-2.148-.007-2.719 2.096-.523 1.928-1.998 7.252-2.04 7.4h-.407s-1.51-5.444-2.04-7.407C7.044-.007 4.894 0 4.894 0H0v16h4.895V6.498h.408L8.158 16h3.4l2.855-9.495h.408V16h4.895V0H14.82zM32.7 0s-1.434.133-2.107 1.677l-3.467 7.825h-.408V0h-4.895v16h4.623s1.503-.14 2.176-1.677l3.399-7.825h.408V16h4.895V0H32.7zm6.8 7.266V16h4.894v-5.1h5.303c2.312 0 4.27-1.517 4.997-3.634H39.5z" fill="#4DB45E"/><path fill-rule="evenodd" clip-rule="evenodd" d="M49.697 0H38.812c.544 3.046 2.768 5.492 5.643 6.288.653.182 1.34.28 2.047.28h8.389c.075-.364.109-.734.109-1.118C55 2.438 52.627 0 49.697 0z" fill="url(#paint0_linear)"/><defs><linearGradient id="paint0_linear" x1="38.814" y1="3.284" x2="55" y2="3.284" gradientUnits="userSpaceOnUse"><stop offset=".3" stop-color="#00B4E6"/><stop offset="1" stop-color="#088CCB"/></linearGradient></defs></svg>