<svg width="100" height="40" fill="none" xmlns="http://www.w3.org/2000/svg"><path d="M44.068 22.682v-3.333c0-1.257-.791-2.104-2.064-2.115a2.008 2.008 0 00-1.05.218 2.04 2.04 0 00-.794.729 1.938 1.938 0 00-.738-.715 1.905 1.905 0 00-.995-.232 1.716 1.716 0 00-.87.19 1.745 1.745 0 00-.664.601v-.666H35.75v5.323h1.153v-2.948c0-.925.504-1.414 1.284-1.414s1.142.5 1.142 1.402v2.96h1.146v-2.948c0-.925.526-1.414 1.284-1.414.759 0 1.153.5 1.153 1.402v2.96h1.155zm17.057-5.32H59.26V15.75h-1.153v1.613h-1.065v1.058h1.065v2.424c0 1.235.471 1.97 1.821 1.97.504.002.999-.14 1.427-.41l-.329-.992a2.089 2.089 0 01-1.01.3c-.57 0-.758-.355-.758-.889V18.42h1.865l.002-1.057zm9.737-.132a1.53 1.53 0 00-.797.197 1.556 1.556 0 00-.586.582v-.646h-1.13v5.319h1.141V19.7c0-.889.373-1.368 1.12-1.368.244-.004.487.041.714.133l.35-1.09a2.408 2.408 0 00-.812-.145zm-14.72.555A3.881 3.881 0 0054 17.23c-1.328 0-2.191.646-2.191 1.701 0 .87.635 1.402 1.81 1.57l.537.077c.624.089.922.255.922.555 0 .411-.416.647-1.196.647a2.77 2.77 0 01-1.753-.556l-.52.9a3.748 3.748 0 002.273.691c1.514 0 2.393-.724 2.393-1.735 0-.935-.693-1.424-1.832-1.59l-.537-.079c-.493-.066-.89-.166-.89-.522 0-.389.373-.622 1-.622a3.347 3.347 0 011.634.456l.491-.938zm30.576-.555a1.53 1.53 0 00-.797.197 1.556 1.556 0 00-.586.582v-.646h-1.13v5.319h1.14V19.7c0-.889.373-1.368 1.12-1.368.245-.004.488.041.715.133l.35-1.09a2.408 2.408 0 00-.812-.145zm-14.703 2.792c0 1.613 1.109 2.793 2.798 2.793a2.724 2.724 0 001.887-.635l-.548-.936a2.286 2.286 0 01-1.372.478c-.911 0-1.58-.68-1.58-1.702 0-1.022.67-1.69 1.58-1.702.496.006.978.173 1.372.478l.548-.935a2.724 2.724 0 00-1.887-.636c-1.69 0-2.798 1.18-2.798 2.793v.004zm10.69 0v-2.666h-1.142v.647a1.994 1.994 0 00-.735-.594 1.966 1.966 0 00-.922-.186c-1.47 0-2.63 1.169-2.63 2.793s1.153 2.793 2.63 2.793c.318.013.634-.05.922-.186.289-.136.54-.34.735-.594v.644h1.142v-2.65zm-4.247 0c0-.935.603-1.701 1.59-1.701.945 0 1.581.735 1.581 1.701 0 .967-.636 1.702-1.58 1.702-.989 0-1.591-.768-1.591-1.702zM64.682 17.23c-1.534 0-2.613 1.135-2.613 2.792 0 1.691 1.12 2.793 2.69 2.793a3.161 3.161 0 002.151-.746l-.558-.858a2.48 2.48 0 01-1.534.556c-.737 0-1.405-.345-1.57-1.302h3.897c.011-.145.022-.29.022-.445 0-1.657-1.021-2.793-2.492-2.793l.007.003zm-.022 1.035c.736 0 1.207.467 1.328 1.29h-2.72c.12-.768.58-1.29 1.394-1.29h-.002zm28.632 1.757v-4.796h-1.141v2.781a1.994 1.994 0 00-.735-.594 1.966 1.966 0 00-.922-.186c-1.47 0-2.63 1.17-2.63 2.793 0 1.624 1.153 2.793 2.63 2.793.317.014.633-.05.922-.186.288-.136.54-.34.735-.594v.644h1.141v-2.655zm1.335 2.169a.332.332 0 01.239.1.34.34 0 01.099.238.335.335 0 01-.206.31.336.336 0 01-.447-.18.337.337 0 01.32-.468h-.005zm0 .6a.246.246 0 00.182-.076.266.266 0 00-.081-.429.25.25 0 00-.1-.02.257.257 0 00-.257.213.268.268 0 00.07.236.26.26 0 00.19.076h-.004zm.02-.422a.14.14 0 01.092.026.088.088 0 01.033.074.086.086 0 01-.027.064.121.121 0 01-.072.031l.1.118h-.078l-.094-.118h-.03v.118h-.067v-.311l.143-.002zm-.077.057v.085h.077a.074.074 0 00.041 0 .036.036 0 00.016-.031.036.036 0 00-.015-.031.074.074 0 00-.042 0l-.077-.023zm-5.52-2.404c0-.935.602-1.701 1.59-1.701.945 0 1.58.735 1.58 1.701 0 .967-.635 1.702-1.58 1.702-.988 0-1.59-.768-1.59-1.702zm-38.55 0v-2.666h-1.142v.647a1.995 1.995 0 00-.733-.589 1.967 1.967 0 00-.917-.184c-1.47 0-2.63 1.168-2.63 2.792 0 1.625 1.153 2.793 2.63 2.793a1.99 1.99 0 001.657-.78v.645h1.142l-.007-2.658zm-4.247 0c0-.935.603-1.701 1.591-1.701.944 0 1.58.735 1.58 1.701 0 .967-.636 1.702-1.58 1.702-.988 0-1.591-.766-1.591-1.702z" fill="#fff"/><path d="M21.182 13.7h-6.904v12.577h6.904V13.699z" fill="#FF5F00"/><path d="M14.716 19.991c0-1.21.27-2.406.792-3.496a7.966 7.966 0 012.222-2.791 7.797 7.797 0 00-8.324-.905 7.928 7.928 0 00-3.24 2.95 8.08 8.08 0 00-1.201 4.243c0 1.501.416 2.972 1.202 4.244a7.929 7.929 0 003.239 2.95 7.796 7.796 0 008.324-.905 7.965 7.965 0 01-2.222-2.793 8.075 8.075 0 01-.792-3.497z" fill="#EB001B"/><path d="M30.495 19.991a8.08 8.08 0 01-1.202 4.244 7.927 7.927 0 01-3.24 2.95 7.795 7.795 0 01-8.323-.906 7.98 7.98 0 002.22-2.793 8.09 8.09 0 000-6.992 7.98 7.98 0 00-2.22-2.793 7.795 7.795 0 018.325-.906 7.927 7.927 0 013.24 2.952 8.08 8.08 0 011.2 4.244zm-.758 4.953v-.258h.103v-.051h-.256v.053h.103v.258l.05-.002zm.507 0v-.311h-.068l-.092.222-.092-.222h-.082v.31h.046v-.233l.086.203h.06l.085-.203v.236l.057-.002z" fill="#F79E1B"/></svg>