<svg width="60" height="60" fill="none" xmlns="http://www.w3.org/2000/svg"><rect width="60" height="60" rx="30" fill="#EDF2F7"/><path d="M21.336 35.718l2.946 2.946c3.224 3.224 8.186 3.905 12.143 1.786.116-.055.64-.353 1.111-.69 1.02-.73 1.131-2.224.237-3.118l-2.812-2.812c-.8-.8-2.1-.8-2.9 0l-.967.967a2.05 2.05 0 01-2.9 0l-2.991-2.992a2.05 2.05 0 010-2.9l.966-.967c.8-.8.8-2.1 0-2.9l-2.812-2.812c-.893-.894-2.387-.784-3.118.237-2.872 4.014-2.492 9.667 1.097 13.255zm12.659-.921l2.812 2.812c.294.294.27.798-.067 1.039a8.738 8.738 0 01-.497.33l-3.699-3.698.484-.483a.684.684 0 01.967 0zm-6.768.966a3.417 3.417 0 004.302.436l3.43 3.43c-3.256 1.326-7.15.628-9.71-1.932l-2.947-2.946c-2.56-2.56-3.258-6.455-1.932-9.712l3.43 3.43a3.417 3.417 0 00.436 4.303l2.991 2.991zm-4.837-12.57l2.813 2.812c.267.267.267.7 0 .966l-.484.484-3.699-3.699a8.65 8.65 0 01.331-.497c.24-.336.744-.361 1.04-.067zm9.705-3.493c4.523 0 8.203 3.68 8.203 8.204a.684.684 0 001.368 0c0-5.277-4.294-9.57-9.57-9.57a.684.684 0 000 1.367zm.001 8.203a.684.684 0 001.367 0c0-.753-.613-1.366-1.367-1.366a.683.683 0 100 1.366zm-.001-2.733a2.738 2.738 0 012.735 2.734.684.684 0 001.367 0 4.106 4.106 0 00-4.102-4.102.684.684 0 000 1.367z" fill="#1A202C"/><path d="M32.095 22.435a5.475 5.475 0 015.469 5.469.684.684 0 101.367 0 6.844 6.844 0 00-6.836-6.836.684.684 0 100 1.367z" fill="#1A202C"/></svg>