<svg width="60" height="60" fill="none" xmlns="http://www.w3.org/2000/svg"><rect width="60" height="60" rx="30" fill="#EDF2F7"/><g clip-path="url(#clip0)" fill="#1A202C"><path d="M19.12 19.487c-4.11 4.25-3.995 11.053.255 15.163 4.12 3.982 10.634 3.998 14.773.128l1.127 1.09-1.553 1.607a.547.547 0 00.787.76l.405-.42 6.215 6.01c.217.21.563.203.773-.014l2.295-2.373a.545.545 0 00-.013-.774l-6.214-6.008.406-.42a.546.546 0 10-.787-.76l-1.553 1.606-1.128-1.09a10.691 10.691 0 002.638-7.232 10.69 10.69 0 00-3.263-7.528c-4.25-4.11-11.053-3.996-15.163.255zM43.03 41.07l-1.534 1.587-3.647-3.527 1.534-1.587 3.648 3.527zm-4.433-4.287l-1.535 1.587-1.387-1.342 1.535-1.587 1.387 1.342zm-5.074-16.766c3.817 3.69 3.92 9.799.229 13.616s-9.8 3.92-13.616.23a9.6 9.6 0 01-2.93-6.761 9.6 9.6 0 012.7-6.856c3.692-3.817 9.8-3.92 13.617-.229z"/><path d="M31.896 20.975a.55.55 0 00-.327.547c.02.224.178.418.395.48a.551.551 0 00.588-.198.552.552 0 00.017-.631.55.55 0 00-.673-.198z"/><path d="M20.971 21.277a8.094 8.094 0 00-2.285 5.801 8.094 8.094 0 002.48 5.722c3.23 3.123 8.398 3.036 11.522-.194a8.149 8.149 0 001.406-9.358.547.547 0 10-.976.495 7.063 7.063 0 01-1.217 8.102 7.062 7.062 0 01-9.975.168 7.006 7.006 0 01-2.146-4.953 7.007 7.007 0 011.978-5.022 7.06 7.06 0 018.068-1.484.547.547 0 10.464-.99 8.155 8.155 0 00-9.319 1.713z"/><path d="M25.533 31.392a.985.985 0 01-.59-.202l-.906-.673a1.036 1.036 0 01-.214-1.41.9.9 0 00.1-.813l-.026-.07a.801.801 0 00-.49-.534h-.07a1.024 1.024 0 01-.647-1.286l.358-1.137a.953.953 0 01.853-.719.937.937 0 01.372.05.843.843 0 00.78-.128l.056-.043a.849.849 0 00.32-.661v-.105a1.015 1.015 0 011.001-1.02h1.116a.99.99 0 01.7.294c.193.196.3.46.297.735v.122a.77.77 0 00.302.626l.048.035a.76.76 0 00.696.114l.149-.049a.988.988 0 011.26.661l.345 1.103a1.033 1.033 0 01-.638 1.282l-.088.03a.826.826 0 00-.538.56.875.875 0 00.11.722l.113.166a1.042 1.042 0 01-.219 1.413l-.879.679a.98.98 0 01-1.409-.232l-.052-.075a.765.765 0 00-.656-.341.788.788 0 00-.626.337l-.1.144a.984.984 0 01-.657.425.868.868 0 01-.17 0zm-1.841-4.542a1.674 1.674 0 011.04 1.094v.053a1.75 1.75 0 01-.2 1.583.166.166 0 000 .224l.94.713a.11.11 0 00.13.003.11.11 0 00.032-.034l.1-.144a1.65 1.65 0 012.713 0l.053.078a.132.132 0 00.078.053.11.11 0 00.084-.022l.9-.683a.157.157 0 00.031-.214l-.113-.166a1.75 1.75 0 01-.232-1.496 1.715 1.715 0 011.09-1.142l.087-.03a.149.149 0 00.083-.193l-.341-1.09a.154.154 0 00-.088-.083.092.092 0 00-.083 0l-.149.048a1.635 1.635 0 01-1.5-.25l-.018-.039a1.645 1.645 0 01-.652-1.312v-.136a.162.162 0 00-.044-.113.136.136 0 00-.091-.035H26.43a.135.135 0 00-.127.144v.11a1.707 1.707 0 01-.665 1.351l-.057.044a1.712 1.712 0 01-1.588.258.096.096 0 00-.06 0 .122.122 0 00-.053.066l-.363 1.142a.157.157 0 00.096.196l.079.022z"/><path d="M27.016 28.548a1.532 1.532 0 110-3.064 1.532 1.532 0 010 3.064zm0-2.188a.655.655 0 100 1.311.655.655 0 000-1.31z"/></g><defs><clipPath id="clip0"><path fill="#fff" transform="rotate(-90.964 30.032 14.135)" d="M0 0h28v28H0z"/></clipPath></defs></svg>