<svg width="60" height="60" fill="none" xmlns="http://www.w3.org/2000/svg"><rect width="60" height="60" rx="30" fill="#EDF2F7"/><path d="M43.245 36.404a5.256 5.256 0 00-1.464-2.78c-1.147-1.144-2.63-1.592-4.174-1.26a.441.441 0 01-.398-.123l-4.16-4.154 5.668-5.658.995.993 3.614-3.607-3.15-3.145-3.614 3.608 1.046 1.044-5.669 5.658-4.123-4.116a.437.437 0 01-.122-.404c.364-1.57-.079-3.077-1.247-4.244a5.271 5.271 0 00-2.784-1.46 5.299 5.299 0 00-3.048.338l-1.066.455 2.923 2.918-1.264 1.262-2.923-2.918-.456 1.063a5.274 5.274 0 00-.339 3.043 5.256 5.256 0 001.464 2.78c1.147 1.144 2.63 1.592 4.174 1.261a.44.44 0 01.398.123l4.157 4.149-1.421 1.418-1.334-1.331-7.007 5.726-.016.014a3.583 3.583 0 00-1.236 2.573 3.582 3.582 0 001.046 2.657 3.596 3.596 0 002.661 1.044 3.594 3.594 0 002.579-1.233l5.75-7.012-1.334-1.33 1.42-1.42 4.128 4.122a.437.437 0 01.122.403c-.364 1.57.079 3.077 1.247 4.244a5.271 5.271 0 002.784 1.46 5.29 5.29 0 003.048-.339l1.065-.454-2.922-2.918 1.264-1.262 2.922 2.918.457-1.063c.411-.96.529-2.013.339-3.043zm-3.069-17.52l.932.93-1.396 1.394-.932-.93 1.396-1.394zM21.762 41.081a2.017 2.017 0 01-2.272.541l1.946-1.942a.782.782 0 000-1.107.785.785 0 00-1.11 0l-1.945 1.942a2 2 0 01-.145-.828c.02-.56.264-1.071.687-1.44l3.39-2.77 2.224 2.22-2.775 3.384zm3.773-4.602l-2.002-1.999 1.29-1.054 1.768 1.765-1.056 1.288zm16.224 1.128l-2.232-2.229-3.482 3.476 2.232 2.23a3.717 3.717 0 01-2.88-1.086c-.989-.988-.996-2.059-.828-2.784a1.986 1.986 0 00-.54-1.864l-9.394-9.376a2.004 2.004 0 00-1.836-.547c-1.022.22-1.968-.07-2.736-.838a3.704 3.704 0 01-1.088-2.875l2.233 2.229 3.482-3.476-2.233-2.229a3.716 3.716 0 012.88 1.086c.99.987.997 2.058.83 2.783-.157.673.045 1.37.54 1.864l9.393 9.377a1.999 1.999 0 001.836.546c1.021-.22 1.968.07 2.736.838a3.703 3.703 0 011.087 2.875z" fill="#1A202C"/></svg>