<svg width="100" height="40" fill="none" xmlns="http://www.w3.org/2000/svg"><path d="M46.667 27.77h-4.05l2.533-15.49h4.05l-2.533 15.49zM61.35 12.66a10.08 10.08 0 00-3.633-.66c-4 0-6.817 2.109-6.834 5.124-.033 2.225 2.017 3.46 3.55 4.202 1.567.758 2.1 1.253 2.1 1.928-.016 1.038-1.267 1.516-2.433 1.516-1.617 0-2.483-.247-3.8-.824l-.533-.247-.567 3.477c.95.428 2.7.807 4.517.824 4.25 0 7.017-2.076 7.05-5.29.016-1.763-1.067-3.114-3.4-4.218-1.417-.708-2.285-1.186-2.285-1.911.017-.66.734-1.335 2.333-1.335a6.948 6.948 0 013.017.593l.367.165.55-3.345zm5.383 9.622l1.617-4.334c-.017.034.333-.906.533-1.482l.283 1.334s.767 3.708.934 4.482h-3.367zm5-10.001H68.6c-.967 0-1.7.28-2.117 1.285l-6.017 14.203h4.25l.85-2.323h5.2c.117.543.484 2.323.484 2.323H75L71.733 12.28zm-32.5-.001l-3.966 10.562-.434-2.142c-.733-2.471-3.033-5.157-5.6-6.492l3.634 13.545h4.283l6.366-15.472h-4.283z" fill="#00579F"/><path d="M31.583 12.28h-6.516l-.067.314c5.083 1.285 8.45 4.383 9.833 8.107l-1.416-7.118c-.234-.99-.95-1.27-1.834-1.302z" fill="#FAA61A"/></svg>