<svg width="228" height="22" viewBox="0 0 228 22" fill="none" xmlns="http://www.w3.org/2000/svg">
<path d="M1.17901 0.533142C2.85273 1.1749 4.6372 1.82783 6.52662 2.48699L6.19722 3.43118C4.29883 2.76889 2.50479 2.11248 0.820993 1.46686L1.17901 0.533142ZM17.4551 6.00108C20.9261 7.03232 24.6237 8.05749 28.5262 9.05828L28.2777 10.0269C24.3634 9.02309 20.6537 7.99458 17.1703 6.95967L17.4551 6.00108ZM39.6841 11.7187C43.3008 12.5182 47.0509 13.2881 50.9211 14.0171L50.736 14.9998C46.8554 14.2688 43.0951 13.4969 39.4682 12.6951L39.6841 11.7187ZM62.236 15.97C65.9436 16.5521 69.7396 17.0918 73.614 17.5808L73.4888 18.5729C69.6042 18.0827 65.7982 17.5415 62.0809 16.9579L62.236 15.97ZM85.0082 18.8439C88.7692 19.2031 92.5905 19.5107 96.4641 19.7598L96.3999 20.7578C92.5158 20.5079 88.6841 20.1995 84.9131 19.8394L85.0082 18.8439ZM107.915 20.3149C111.706 20.438 115.537 20.5017 119.402 20.5L119.402 21.5C115.526 21.5017 111.684 21.4378 107.883 21.3143L107.915 20.3149ZM130.866 20.3002C134.665 20.1685 138.488 19.9701 142.329 19.6993L142.4 20.6968C138.546 20.9684 134.711 21.1675 130.901 21.2996L130.866 20.3002ZM153.758 18.6802C157.541 18.2708 161.336 17.7872 165.136 17.2243L165.282 18.2135C161.469 18.7783 157.661 19.2636 153.865 19.6744L153.758 18.6802ZM176.452 15.3105C180.193 14.5974 183.933 13.8029 187.667 12.922L187.896 13.8953C184.148 14.7796 180.394 15.5771 176.639 16.2928L176.452 15.3105ZM198.767 10.0369C202.433 8.9937 206.087 7.86174 209.724 6.63644L210.043 7.5841C206.391 8.81462 202.722 9.95128 199.041 10.9988L198.767 10.0369ZM220.492 2.70915C222.269 2.01005 224.04 1.28705 225.805 0.539585L226.195 1.46041C224.422 2.21127 222.643 2.93751 220.858 3.63972L220.492 2.70915Z" fill="#1A202C"/>
<path d="M220.49 7.7998L226 0.999804H216.357L220.49 7.7998Z" fill="#1A202C" stroke="#1A202C"/>
</svg>
