<svg width="228" height="22" viewBox="0 0 228 22" fill="none" xmlns="http://www.w3.org/2000/svg">
<path d="M1.17901 21.4669C2.85273 20.8251 4.6372 20.1722 6.52662 19.513L6.19722 18.5688C4.29883 19.2311 2.50479 19.8875 0.820993 20.5331L1.17901 21.4669ZM17.4551 15.9989C20.9261 14.9677 24.6237 13.9425 28.5262 12.9417L28.2777 11.9731C24.3634 12.9769 20.6537 14.0054 17.1703 15.0403L17.4551 15.9989ZM39.6841 10.2813C43.3008 9.48181 47.0509 8.71194 50.9211 7.98293L50.736 7.00021C46.8554 7.73117 43.0951 8.50314 39.4682 9.30489L39.6841 10.2813ZM62.236 6.03C65.9436 5.44789 69.7396 4.90816 73.614 4.41919L73.4888 3.42706C69.6042 3.91731 65.7982 4.45846 62.0809 5.04211L62.236 6.03ZM85.0082 3.15606C88.7692 2.7969 92.5905 2.48932 96.4641 2.24017L96.3999 1.24224C92.5158 1.49206 88.6841 1.80047 84.9131 2.16059L85.0082 3.15606ZM107.915 1.68512C111.706 1.56198 115.537 1.49829 119.402 1.50004L119.402 0.500036C115.526 0.498282 111.684 0.562159 107.883 0.68565L107.915 1.68512ZM130.866 1.69984C134.665 1.83146 138.488 2.02994 142.329 2.30071L142.4 1.30319C138.546 1.03155 134.711 0.832458 130.901 0.700438L130.866 1.69984ZM153.758 3.31978C157.541 3.72922 161.336 4.21284 165.136 4.77572L165.282 3.78652C161.469 3.22166 157.661 2.73639 153.865 2.32559L153.758 3.31978ZM176.452 6.68951C180.193 7.40257 183.933 8.19713 187.667 9.07801L187.896 8.10473C184.148 7.22044 180.394 6.42288 176.639 5.70719L176.452 6.68951ZM198.767 11.9631C202.433 13.0063 206.087 14.1383 209.724 15.3636L210.043 14.4159C206.391 13.1854 202.722 12.0487 199.041 11.0012L198.767 11.9631ZM220.492 19.2908C222.269 19.9899 224.04 20.7129 225.805 21.4604L226.195 20.5396C224.422 19.7887 222.643 19.0625 220.858 18.3603L220.492 19.2908Z" fill="#1A202C"/>
<path d="M220.49 14.2002L226 21.0002H216.357L220.49 14.2002Z" fill="#1A202C" stroke="#1A202C"/>
</svg>
