<svg width="60" height="60" viewBox="0 0 60 60" fill="none" xmlns="http://www.w3.org/2000/svg">
<rect width="60" height="60" rx="30" fill="#EDF2F7"/>
<g clip-path="url(#clip0)">
<path d="M22.563 34.3755C21.6583 34.3755 20.9224 35.1115 20.9224 36.0161C20.9224 36.9208 21.6583 37.6567 22.563 37.6567C23.4676 37.6567 24.2036 36.9208 24.2036 36.0161C24.2036 35.1115 23.4676 34.3755 22.563 34.3755ZM22.563 36.5629C22.2614 36.5629 22.0161 36.3176 22.0161 36.0161C22.0161 35.7145 22.2614 35.4692 22.563 35.4692C22.8645 35.4692 23.1099 35.7145 23.1099 36.0161C23.1099 36.3176 22.8645 36.5629 22.563 36.5629Z" fill="#1A202C"/>
<path d="M37.4374 34.3755C36.5328 34.3755 35.7969 35.1115 35.7969 36.0161C35.7969 36.9208 36.5328 37.6567 37.4374 37.6567C38.3421 37.6567 39.0781 36.9208 39.0781 36.0161C39.0781 35.1115 38.3421 34.3755 37.4374 34.3755ZM37.4374 36.5629C37.1359 36.5629 36.8906 36.3176 36.8906 36.0161C36.8906 35.7145 37.1359 35.4692 37.4374 35.4692C37.739 35.4692 37.9843 35.7145 37.9843 36.0161C37.9843 36.3176 37.739 36.5629 37.4374 36.5629Z" fill="#1A202C"/>
<path d="M43.4531 33.4293V31.6407C43.4531 30.133 42.2265 28.9064 40.7188 28.9064H39.9084L37.872 24.8337C37.4154 23.9204 36.679 23.4377 35.7423 23.4377H32.7345V21.7969C32.7345 20.8923 31.9985 20.1563 31.0939 20.1563H23.6562C23.3542 20.1563 23.1093 20.4011 23.1093 20.7032C23.1093 21.0052 23.3542 21.2501 23.6562 21.2501H31.0939C31.3954 21.2501 31.6407 21.4954 31.6407 21.7969V23.9845V33.2814H25.238C24.5473 32.6054 23.603 32.1877 22.5626 32.1877C21.5222 32.1877 20.5779 32.6054 19.8872 33.2814H17.6406V32.1876H17.6407H18.1875C18.4895 32.1876 18.7344 31.9427 18.7344 31.6407C18.7344 31.3387 18.4895 31.0938 18.1875 31.0938H17.6407H17.6406V21.7969C17.6406 21.4953 17.8859 21.25 18.1875 21.25H18.7344C19.0363 21.25 19.2812 21.0052 19.2812 20.7031C19.2812 20.4011 19.0363 20.1562 18.7344 20.1562H18.1875C17.2829 20.1562 16.5469 20.8922 16.5469 21.7969V33.4293C16.2205 33.6188 16 33.9712 16 34.3751V35.4688C16 36.0719 16.4907 36.5625 17.0937 36.5625H18.7742C19.0404 38.4152 20.6375 39.8438 22.5626 39.8438C24.4876 39.8438 26.0848 38.4151 26.351 36.5625H33.649C33.9152 38.4152 35.5123 39.8438 37.4374 39.8438C39.3624 39.8438 40.9595 38.4151 41.2258 36.5625H42.9062C43.5093 36.5625 43.9999 36.0719 43.9999 35.4688V34.3751C44 33.9713 43.7795 33.6188 43.4531 33.4293ZM38.6855 28.9064H34.922V26.7189H37.5917L38.6855 28.9064ZM32.7345 24.5314H35.7422C36.0667 24.5314 36.539 24.6134 36.8937 25.3228L37.0449 25.6251H34.3751C34.0732 25.6251 33.8283 25.87 33.8283 26.172V29.4533C33.8283 29.7553 34.0732 30.0001 34.3751 30.0001H39.5704H40.7188C41.4317 30.0001 42.0395 30.4573 42.2653 31.0938H41.8125C41.5105 31.0938 41.2656 31.3387 41.2656 31.6407C41.2656 31.9427 41.5105 32.1876 41.8125 32.1876H42.3594V33.2814H40.1128C39.4221 32.6054 38.4778 32.1877 37.4374 32.1877C36.397 32.1877 35.4527 32.6054 34.7621 33.2814H32.7345V24.5314ZM33.6491 35.4689H26.351C26.2955 35.0828 26.1826 34.7152 26.0206 34.3751H33.9795C33.8175 34.7152 33.7045 35.0828 33.6491 35.4689ZM17.0937 34.3751H17.0943H19.1046C18.9426 34.7152 18.8296 35.0828 18.7742 35.4689H17.0937V34.3751ZM22.5626 38.7501C21.0549 38.7501 19.8282 37.5235 19.8282 36.0157C19.8282 34.508 21.0549 33.2814 22.5626 33.2814C24.0703 33.2814 25.2969 34.508 25.2969 36.0157C25.2969 37.5235 24.0703 38.7501 22.5626 38.7501ZM37.4374 38.7501C35.9297 38.7501 34.7031 37.5235 34.7031 36.0157C34.7031 34.508 35.9297 33.2814 37.4374 33.2814C38.9451 33.2814 40.1718 34.508 40.1718 36.0157C40.1718 37.5235 38.9451 38.7501 37.4374 38.7501ZM42.9063 35.4689H41.2258C41.1704 35.0828 41.0574 34.7152 40.8954 34.3751H42.9057H42.9063V35.4689Z" fill="#1A202C"/>
<path d="M21.1955 21.25C21.4975 21.25 21.7424 21.0052 21.7424 20.7031C21.7424 20.4011 21.4975 20.1562 21.1955 20.1562H21.1951C20.8931 20.1562 20.6484 20.4011 20.6484 20.7031C20.6484 21.0052 20.8935 21.25 21.1955 21.25Z" fill="#1A202C"/>
</g>
<defs>
<clipPath id="clip0">
<rect width="28" height="28" fill="white" transform="translate(16 16)"/>
</clipPath>
</defs>
</svg>
