<svg width="60" height="60" viewBox="0 0 60 60" fill="none" xmlns="http://www.w3.org/2000/svg">
<rect width="60" height="60" rx="30" fill="#EDF2F7"/>
<path d="M44.5 15H25.5C25.3674 15 25.2402 15.0527 25.1464 15.1464C25.0527 15.2402 25 15.3674 25 15.5V24H26V17.618L27.5528 20.7236C27.5943 20.8067 27.6581 20.8765 27.7371 20.9253C27.8161 20.9742 27.9071 21 28 21H42C42.0929 21 42.1839 20.9742 42.2629 20.9253C42.3419 20.8765 42.4057 20.8067 42.4472 20.7236L44 17.618V38H30.5V39H44.5C44.6326 39 44.7598 38.9473 44.8536 38.8536C44.9473 38.7598 45 38.6326 45 38.5V15.5C45 15.3674 44.9473 15.2402 44.8536 15.1464C44.7598 15.0527 44.6326 15 44.5 15ZM26.309 16H31.5V20H28.309L26.309 16ZM41.691 20H32.5V16H43.691L41.691 20Z" fill="#1A202C"/>
<path d="M35 16.5C34.7033 16.5 34.4133 16.588 34.1666 16.7528C33.92 16.9176 33.7277 17.1519 33.6142 17.426C33.5007 17.7001 33.4709 18.0017 33.5288 18.2926C33.5867 18.5836 33.7296 18.8509 33.9393 19.0607C34.1491 19.2704 34.4164 19.4133 34.7074 19.4712C34.9983 19.5291 35.2999 19.4993 35.574 19.3858C35.8481 19.2723 36.0824 19.08 36.2472 18.8334C36.412 18.5867 36.5 18.2967 36.5 18C36.4996 17.6023 36.3414 17.221 36.0602 16.9398C35.779 16.6586 35.3977 16.5004 35 16.5ZM35 18.5C34.9011 18.5 34.8044 18.4707 34.7222 18.4157C34.64 18.3608 34.5759 18.2827 34.5381 18.1913C34.5002 18.1 34.4903 17.9994 34.5096 17.9025C34.5289 17.8055 34.5765 17.7164 34.6465 17.6464C34.7164 17.5765 34.8055 17.5289 34.9025 17.5096C34.9994 17.4903 35.1 17.5002 35.1913 17.5381C35.2827 17.5759 35.3608 17.64 35.4157 17.7222C35.4707 17.8044 35.5 17.9011 35.5 18C35.4999 18.1326 35.4471 18.2596 35.3534 18.3534C35.2597 18.4471 35.1326 18.4998 35 18.5Z" fill="#1A202C"/>
<path d="M41 16.5H38C37.8674 16.5 37.7402 16.5527 37.6464 16.6464C37.5527 16.7402 37.5 16.8674 37.5 17V19C37.5 19.1326 37.5527 19.2598 37.6464 19.3536C37.7402 19.4473 37.8674 19.5 38 19.5H41C41.1326 19.5 41.2598 19.4473 41.3536 19.3536C41.4473 19.2598 41.5 19.1326 41.5 19V17C41.5 16.8674 41.4473 16.7402 41.3536 16.6464C41.2598 16.5527 41.1326 16.5 41 16.5ZM40.5 18.5H38.5V17.5H40.5V18.5Z" fill="#1A202C"/>
<path d="M28.5 17.5H30.5V18.5H28.5V17.5Z" fill="#1A202C"/>
<path d="M33 40H29.5V25.5C29.5 25.3674 29.4473 25.2402 29.3536 25.1464C29.2598 25.0527 29.1326 25 29 25H15.5C15.3674 25 15.2402 25.0527 15.1464 25.1464C15.0527 25.2402 15 25.3674 15 25.5V42.5C15.0008 43.1628 15.2644 43.7983 15.7331 44.2669C16.2017 44.7356 16.8372 44.9992 17.5 45H31C31.6628 44.9992 32.2983 44.7356 32.7669 44.2669C33.2356 43.7983 33.4992 43.1628 33.5 42.5V40.5C33.5 40.3674 33.4473 40.2402 33.3536 40.1464C33.2598 40.0527 33.1326 40 33 40ZM17.5 44C17.1023 43.9995 16.721 43.8414 16.4398 43.5602C16.1586 43.279 16.0004 42.8977 16 42.5V26H28.5V42.5C28.4994 43.0412 28.6754 43.5678 29.0012 44H17.5ZM32.5 42.5C32.5 42.8978 32.342 43.2794 32.0607 43.5607C31.7794 43.842 31.3978 44 31 44C30.6022 44 30.2206 43.842 29.9393 43.5607C29.658 43.2794 29.5 42.8978 29.5 42.5V41H32.5V42.5Z" fill="#1A202C"/>
<path d="M22 32C22.3978 32 22.7794 31.842 23.0607 31.5607C23.342 31.2794 23.5 30.8978 23.5 30.5C23.5 30.1022 23.342 29.7206 23.0607 29.4393C22.7794 29.158 22.3978 29 22 29V30C22.0989 30 22.1956 30.0293 22.2778 30.0843C22.36 30.1392 22.4241 30.2173 22.4619 30.3087C22.4998 30.4 22.5097 30.5006 22.4904 30.5975C22.4711 30.6945 22.4235 30.7836 22.3536 30.8536C22.2836 30.9235 22.1945 30.9711 22.0975 30.9904C22.0006 31.0097 21.9 30.9998 21.8087 30.9619C21.7173 30.9241 21.6392 30.86 21.5843 30.7778C21.5293 30.6956 21.5 30.5989 21.5 30.5H20.5C20.5004 30.8977 20.6586 31.279 20.9398 31.5602C21.221 31.8414 21.6023 31.9996 22 32Z" fill="#1A202C"/>
<path d="M18 35H19.1397L19.5257 36.1581C19.5559 36.2488 19.6115 36.3289 19.6859 36.389C19.7603 36.4491 19.8504 36.4865 19.9455 36.497C20.0405 36.5074 20.1366 36.4904 20.2222 36.4479C20.3079 36.4054 20.3796 36.3392 20.4288 36.2572L21.7874 33.9929C21.8578 33.9971 21.9286 34 22 34C22.0715 34 22.1423 33.9971 22.2127 33.9929L23.5713 36.2572C23.6205 36.3392 23.6921 36.4054 23.7778 36.4479C23.8635 36.4904 23.9595 36.5074 24.0546 36.497C24.1496 36.4865 24.2397 36.4491 24.3141 36.389C24.3885 36.3289 24.4441 36.2488 24.4744 36.1581L24.8604 35H26C26.0885 35 26.1754 34.9765 26.2519 34.9319C26.3283 34.8874 26.3915 34.8233 26.4351 34.7463C26.4787 34.6693 26.5011 34.5821 26.5 34.4936C26.4989 34.4052 26.4743 34.3186 26.4288 34.2427L25.126 32.0713C25.3947 31.5377 25.5224 30.9442 25.4968 30.3473C25.4713 29.7504 25.2933 29.17 24.98 28.6613C24.6666 28.1526 24.2282 27.7326 23.7066 27.4413C23.185 27.15 22.5975 26.9971 22 26.9971C21.4026 26.9971 20.8151 27.15 20.2934 27.4413C19.7718 27.7326 19.3335 28.1526 19.0201 28.6613C18.7067 29.17 18.5288 29.7504 18.5032 30.3473C18.4777 30.9442 18.6053 31.5377 18.8741 32.0713L17.5712 34.2427C17.5257 34.3186 17.5012 34.4052 17.5 34.4936C17.4989 34.5821 17.5213 34.6693 17.5649 34.7463C17.6085 34.8233 17.6718 34.8874 17.7482 34.9319C17.8246 34.9765 17.9115 35 18 35ZM25.1169 34H24.5C24.3951 34 24.2928 34.033 24.2077 34.0943C24.1225 34.1557 24.0589 34.2423 24.0257 34.3418L23.8695 34.8105L23.2453 33.7702C23.7138 33.5909 24.1384 33.3133 24.4905 32.956L25.1169 34ZM22 28C22.4945 28 22.9778 28.1466 23.3889 28.4213C23.8001 28.696 24.1205 29.0864 24.3097 29.5433C24.4989 30.0001 24.5485 30.5027 24.452 30.9877C24.3555 31.4726 24.1174 31.9181 23.7678 32.2677C23.4182 32.6174 22.9727 32.8555 22.4878 32.9519C22.0028 33.0484 21.5001 32.9989 21.0433 32.8097C20.5865 32.6204 20.1961 32.3 19.9214 31.8889C19.6466 31.4778 19.5 30.9944 19.5 30.5C19.5008 29.8372 19.7644 29.2017 20.2331 28.733C20.7018 28.2644 21.3372 28.0007 22 28ZM20.7548 33.7702L20.1306 34.8105L19.9744 34.3418C19.9412 34.2423 19.8775 34.1557 19.7924 34.0943C19.7073 34.033 19.605 34 19.5 34H18.8831L19.5095 32.956C19.8616 33.3133 20.2863 33.5909 20.7548 33.7702Z" fill="#1A202C"/>
<path d="M17 37H18.5V38H17V37Z" fill="#1A202C"/>
<path d="M19.5 37H20.5V38H19.5V37Z" fill="#1A202C"/>
<path d="M20.5 39H24.5V40H20.5V39Z" fill="#1A202C"/>
<path d="M25.5 39H27.5V40H25.5V39Z" fill="#1A202C"/>
<path d="M17.5 41H21V42H17.5V41Z" fill="#1A202C"/>
<path d="M22 41H27.5V42H22V41Z" fill="#1A202C"/>
<path d="M42.9997 29.5C42.9997 28.0101 42.556 26.554 41.7251 25.3173C40.8942 24.0807 39.7138 23.1195 38.3344 22.5564C36.9551 21.9932 35.4393 21.8537 33.9803 22.1555C32.5213 22.4574 31.1853 23.1869 30.1426 24.2511L30.8568 24.951C31.7565 24.0327 32.9083 23.4019 34.1666 23.1383C35.4248 22.8746 36.733 22.99 37.9256 23.4698C39.1183 23.9496 40.1419 24.7723 40.867 25.8339C41.5921 26.8955 41.9861 28.1482 41.9992 29.4337C42.0123 30.7192 41.644 31.9797 40.9407 33.0559C40.2374 34.132 39.2308 34.9754 38.0482 35.4795C36.8656 35.9836 35.56 36.1256 34.2967 35.8877C33.0333 35.6498 31.8689 35.0426 30.9506 34.1429L30.2508 34.8572C31.3057 35.8907 32.6422 36.5899 34.0929 36.8669C35.5435 37.1439 37.0436 36.9865 38.4051 36.4144C39.7667 35.8422 40.929 34.8809 41.7463 33.6509C42.5637 32.4208 42.9997 30.9768 42.9997 29.5Z" fill="#1A202C"/>
<path d="M37.0622 30.1095C36.6198 29.7523 36.0684 29.5576 35.4998 29.5576C34.9313 29.5576 34.3798 29.7523 33.9374 30.1095C33.6719 30.3238 33.341 30.4408 32.9998 30.4408C32.6586 30.4408 32.3276 30.3238 32.0621 30.1095L30.8121 29.1095L30.1875 29.8904L31.4374 30.8904C31.8798 31.2475 32.4312 31.4423 32.9998 31.4423C33.5684 31.4423 34.1198 31.2475 34.5622 30.8904C34.8277 30.676 35.1586 30.5591 35.4998 30.5591C35.841 30.5591 36.172 30.676 36.4374 30.8904C36.8798 31.2475 37.4312 31.4423 37.9998 31.4423C38.5683 31.4423 39.1197 31.2475 39.5621 30.8904L39.8466 30.6628C39.6094 31.5494 39.1067 32.3423 38.4059 32.9352C37.7052 33.528 36.84 33.8925 35.9262 33.9796C35.0125 34.0667 34.094 33.8724 33.2938 33.4227C32.4937 32.9729 31.8502 32.2893 31.4496 31.4635L30.55 31.9004C31.0933 33.0202 32.0003 33.9227 33.1228 34.4603C34.2453 34.9979 35.517 35.1389 36.73 34.8602C37.943 34.5815 39.0256 33.8996 39.801 32.926C40.5763 31.9524 40.9984 30.7446 40.9984 29.4999C40.9984 28.2553 40.5763 27.0475 39.801 26.0739C39.0256 25.1002 37.943 24.4183 36.73 24.1397C35.517 23.861 34.2453 24.0019 33.1228 24.5396C32.0003 25.0772 31.0933 25.9796 30.55 27.0994L31.4496 27.5364C31.8853 26.6382 32.6072 25.9104 33.5018 25.4674C34.3964 25.0244 35.4129 24.8914 36.3914 25.0893C37.3698 25.2872 38.2547 25.8048 38.9068 26.5606C39.5589 27.3165 39.9413 28.2677 39.9936 29.2646L38.9374 30.1095C38.672 30.3238 38.341 30.4408 37.9998 30.4408C37.6586 30.4408 37.3277 30.3238 37.0622 30.1095Z" fill="#1A202C"/>
</svg>
