<svg width="55" height="16" viewBox="0 0 55 16" fill="none" xmlns="http://www.w3.org/2000/svg">
<path fill-rule="evenodd" clip-rule="evenodd" d="M14.8208 3.04414e-07V0.0069872C14.814 0.0069872 12.6724 2.66529e-07 12.1014 2.10306C11.5779 4.03144 10.1026 9.35546 10.0618 9.50218H9.6539C9.6539 9.50218 8.14462 4.05939 7.61434 2.09607C7.04326 -0.00698666 4.89493 3.04414e-07 4.89493 3.04414e-07H0V16H4.89493V6.49782H5.09889H5.30284L8.15822 16H11.5575L14.4129 6.5048H14.8208V16H19.7157V3.04414e-07H14.8208Z" fill="#4DB45E"/>
<path fill-rule="evenodd" clip-rule="evenodd" d="M32.7009 0C32.7009 0 31.2664 0.132751 30.5933 1.67686L27.1261 9.50218H26.7182V0H21.8232V16H26.4462C26.4462 16 27.9487 15.8603 28.6218 14.3231L32.021 6.49782H32.4289V16H37.3239V0H32.7009Z" fill="#4DB45E"/>
<path fill-rule="evenodd" clip-rule="evenodd" d="M39.4995 7.26636V16H44.3944V10.8995H49.6973C52.0088 10.8995 53.9668 9.38339 54.6942 7.26636H39.4995Z" fill="#4DB45E"/>
<path fill-rule="evenodd" clip-rule="evenodd" d="M49.6969 0H38.8125C39.3564 3.04629 41.5795 5.4917 44.4553 6.28821C45.1079 6.46987 45.7946 6.56769 46.5016 6.56769H54.891C54.9658 6.20437 54.9998 5.83406 54.9998 5.44978C54.9998 2.43843 52.6271 0 49.6969 0Z" fill="url(#paint0_linear)"/>
<defs>
<linearGradient id="paint0_linear" x1="38.8138" y1="3.28384" x2="54.9998" y2="3.28384" gradientUnits="userSpaceOnUse">
<stop offset="0.3" stop-color="#00B4E6"/>
<stop offset="1" stop-color="#088CCB"/>
</linearGradient>
</defs>
</svg>
