<svg width="100" height="40" viewBox="0 0 100 40" fill="none" xmlns="http://www.w3.org/2000/svg">
<path d="M44.0679 22.6819V19.3492C44.0679 18.0917 43.2768 17.2452 42.0035 17.2341C41.6408 17.2103 41.2786 17.2856 40.9544 17.4521C40.6302 17.6185 40.356 17.8701 40.1604 18.1806C39.9821 17.8793 39.727 17.6324 39.4219 17.4658C39.1168 17.2993 38.7731 17.2192 38.4269 17.2341C38.1254 17.2193 37.8253 17.2845 37.5563 17.4232C37.2873 17.5619 37.0586 17.7694 36.8928 18.025V17.3585H35.751V22.6819H36.9037V19.7336C36.9037 18.8093 37.4078 18.3205 38.188 18.3205C38.9682 18.3205 39.3298 18.8204 39.3298 19.7225V22.6819H40.476V19.7336C40.476 18.8093 41.0019 18.3205 41.7602 18.3205C42.5185 18.3205 42.913 18.8204 42.913 19.7225V22.6819H44.0679ZM61.1248 17.3629H59.2598V15.7499H58.107V17.3629H57.0419V18.4205H58.107V20.8445C58.107 22.0798 58.5782 22.8152 59.9282 22.8152C60.4324 22.8169 60.9269 22.6744 61.3549 22.4042L61.0262 21.4133C60.7198 21.5982 60.3722 21.7014 60.0159 21.7132C59.4461 21.7132 59.2576 21.3577 59.2576 20.8245V18.4205H61.1226L61.1248 17.3629ZM70.8619 17.2296C70.5835 17.2214 70.3081 17.2895 70.0647 17.4268C69.8213 17.564 69.6189 17.7653 69.479 18.0095V17.3629H68.3482V22.6819H69.49V19.7003C69.49 18.8115 69.8625 18.3316 70.6098 18.3316C70.8543 18.3281 71.0971 18.3734 71.3243 18.4649L71.6749 17.3741C71.414 17.2794 71.139 17.2306 70.8619 17.2296ZM56.1412 17.7851C55.4947 17.3957 54.7515 17.2029 54.0001 17.2296C52.672 17.2296 51.8085 17.8762 51.8085 18.9315C51.8085 19.8002 52.444 20.3335 53.6187 20.5001L54.1557 20.5779C54.7802 20.6667 55.0783 20.8334 55.0783 21.1333C55.0783 21.5443 54.6619 21.7798 53.8817 21.7798C53.2523 21.8001 52.6345 21.6044 52.1285 21.2244L51.6091 22.1242C52.274 22.5955 53.0707 22.8378 53.8817 22.8152C55.3961 22.8152 56.2749 22.0909 56.2749 21.08C56.2749 20.1446 55.5824 19.6558 54.4427 19.4892L53.9058 19.4114C53.4127 19.3448 53.016 19.2448 53.016 18.8893C53.016 18.5005 53.3886 18.2672 54.0154 18.2672C54.5897 18.2758 55.1523 18.4326 55.6503 18.7227L56.1412 17.7851ZM86.7178 17.2296C86.4394 17.2214 86.164 17.2895 85.9206 17.4268C85.6772 17.564 85.4748 17.7653 85.3349 18.0095V17.3629H84.2041V22.6819H85.3459V19.7003C85.3459 18.8115 85.7184 18.3316 86.4657 18.3316C86.7102 18.3281 86.953 18.3734 87.1802 18.4649L87.5308 17.3741C87.2699 17.2794 86.9949 17.2306 86.7178 17.2296ZM72.0146 20.0224C72.0146 21.6354 73.1236 22.8152 74.8132 22.8152C75.4984 22.8496 76.1715 22.6229 76.7002 22.1798L76.1523 21.2444C75.7576 21.5491 75.2765 21.7166 74.7804 21.7221C73.8687 21.7221 73.2003 21.0422 73.2003 20.0202C73.2003 18.9982 73.8709 18.3294 74.7804 18.3183C75.2765 18.3237 75.7576 18.4913 76.1523 18.796L76.7002 17.8606C76.1715 17.4175 75.4984 17.1908 74.8132 17.2252C73.1236 17.2252 72.0146 18.405 72.0146 20.018V20.0224ZM82.705 20.0224V17.3563H81.5632V18.0028C81.3686 17.7481 81.1166 17.5445 80.8283 17.4088C80.5401 17.2731 80.2239 17.2094 79.9064 17.223C78.4359 17.223 77.2766 18.3916 77.2766 20.0158C77.2766 21.6399 78.4293 22.8085 79.9064 22.8085C80.2239 22.8221 80.5401 22.7584 80.8283 22.6227C81.1166 22.4871 81.3686 22.2834 81.5632 22.0287V22.673H82.705V20.0224ZM78.4578 20.0224C78.4578 19.087 79.0605 18.3205 80.0489 18.3205C80.9934 18.3205 81.629 19.0559 81.629 20.0224C81.629 20.9889 80.9934 21.7243 80.0489 21.7243C79.0605 21.7243 78.4578 20.9556 78.4578 20.0224ZM64.6817 17.2296C63.1476 17.2296 62.0694 18.365 62.0694 20.0224C62.0694 21.7132 63.1892 22.8152 64.7584 22.8152C65.5419 22.843 66.308 22.5773 66.9105 22.0687L66.3517 21.2111C65.9158 21.5646 65.3758 21.7602 64.8176 21.7665C64.0812 21.7665 63.4128 21.4221 63.2484 20.4646H67.145C67.156 20.3201 67.1669 20.1757 67.1669 20.0202C67.1669 18.3627 66.1457 17.2274 64.6751 17.2274L64.6817 17.2296ZM64.6598 18.265C65.3961 18.265 65.8673 18.7316 65.9879 19.5558H63.2681C63.3887 18.7871 63.8489 18.265 64.662 18.265H64.6598ZM93.2924 20.0224V15.2256H92.1506V18.0073C91.956 17.7526 91.704 17.5489 91.4157 17.4132C91.1275 17.2775 90.8113 17.2138 90.4938 17.2274C89.0233 17.2274 87.864 18.3961 87.864 20.0202C87.864 21.6443 89.0167 22.813 90.4938 22.813C90.8113 22.8266 91.1275 22.7629 91.4157 22.6272C91.704 22.4915 91.956 22.2878 92.1506 22.0331V22.6774H93.2924V20.0224ZM94.6271 22.1909C94.6722 22.1907 94.717 22.1998 94.7586 22.2175C94.7986 22.2349 94.8351 22.2597 94.866 22.2909C94.8966 22.3214 94.9212 22.3576 94.9383 22.3975C94.9559 22.4389 94.965 22.4835 94.965 22.5286C94.965 22.5737 94.9559 22.6183 94.9383 22.6597C94.9211 22.6996 94.8966 22.7358 94.866 22.7663C94.835 22.7973 94.7986 22.8222 94.7586 22.8396C94.717 22.8576 94.6723 22.8667 94.6271 22.8663C94.5603 22.8671 94.4947 22.848 94.4386 22.8112C94.3824 22.7745 94.3382 22.7218 94.3115 22.6597C94.294 22.6182 94.285 22.5737 94.285 22.5286C94.285 22.4835 94.294 22.4389 94.3115 22.3975C94.3458 22.3159 94.4103 22.2513 94.4912 22.2175C94.5356 22.1988 94.5834 22.1897 94.6315 22.1909H94.6271ZM94.6271 22.7908C94.6617 22.7913 94.696 22.7845 94.7279 22.7708C94.7581 22.7575 94.7856 22.7387 94.809 22.7152C94.8577 22.6657 94.8851 22.5986 94.8851 22.5286C94.8851 22.4586 94.8577 22.3915 94.809 22.342C94.7857 22.3184 94.7582 22.2995 94.7279 22.2864C94.696 22.2728 94.6617 22.266 94.6271 22.2664C94.5918 22.2659 94.5567 22.2727 94.5241 22.2864C94.485 22.3033 94.4506 22.3297 94.4239 22.3632C94.3971 22.3966 94.3788 22.4362 94.3706 22.4785C94.3624 22.5208 94.3645 22.5644 94.3767 22.6057C94.389 22.6469 94.411 22.6845 94.4408 22.7152C94.4648 22.739 94.4931 22.7579 94.5241 22.7708C94.5581 22.7851 94.5947 22.7919 94.6315 22.7908H94.6271ZM94.6468 22.3686C94.6796 22.3663 94.7122 22.3757 94.7389 22.3953C94.7497 22.404 94.7583 22.4152 94.764 22.428C94.7697 22.4407 94.7723 22.4546 94.7717 22.4686C94.7721 22.4806 94.77 22.4926 94.7655 22.5037C94.7609 22.5148 94.7541 22.5248 94.7454 22.533C94.7253 22.5512 94.6999 22.5621 94.6731 22.5641L94.7739 22.6819H94.695L94.6008 22.5641H94.5701V22.6819H94.5044V22.3708L94.6468 22.3686ZM94.5701 22.4264V22.5108H94.6468C94.6604 22.5148 94.6749 22.5148 94.6885 22.5108C94.6934 22.5074 94.6974 22.5027 94.7001 22.4973C94.7028 22.4918 94.7041 22.4858 94.7038 22.4797C94.7041 22.4736 94.7028 22.4676 94.7001 22.4621C94.6974 22.4567 94.6934 22.452 94.6885 22.4486C94.6749 22.4446 94.6604 22.4446 94.6468 22.4486L94.5701 22.4264ZM89.0496 20.0224C89.0496 19.087 89.6523 18.3205 90.6407 18.3205C91.5852 18.3205 92.2208 19.0559 92.2208 20.0224C92.2208 20.9889 91.5852 21.7243 90.6407 21.7243C89.6523 21.7243 89.0496 20.9556 89.0496 20.0224ZM50.5001 20.0224V17.3563H49.3583V18.0028C49.1636 17.7503 48.9124 17.5485 48.6254 17.414C48.3384 17.2796 48.024 17.2163 47.7081 17.2296C46.2376 17.2296 45.0782 18.3983 45.0782 20.0224C45.0782 21.6465 46.231 22.8152 47.7081 22.8152C48.0256 22.8288 48.3417 22.7651 48.63 22.6294C48.9182 22.4937 49.1702 22.29 49.3649 22.0354V22.6797H50.5067L50.5001 20.0224ZM46.2529 20.0224C46.2529 19.087 46.8556 18.3205 47.844 18.3205C48.7885 18.3205 49.4241 19.0559 49.4241 20.0224C49.4241 20.9889 48.7885 21.7243 47.844 21.7243C46.8556 21.7243 46.2529 20.9578 46.2529 20.0224Z" fill="white"/>
<path d="M21.1817 13.6992H14.2783V26.2767H21.1817V13.6992Z" fill="#FF5F00"/>
<path d="M14.7161 19.9913C14.7152 18.7802 14.986 17.5848 15.508 16.4954C16.0301 15.4061 16.7898 14.4514 17.7295 13.7037C16.5656 12.7764 15.1678 12.1997 13.6959 12.0396C12.224 11.8796 10.7374 12.1426 9.40599 12.7985C8.07456 13.4545 6.95202 14.4769 6.16667 15.7491C5.38132 17.0212 4.96484 18.4917 4.96484 19.9924C4.96484 21.4932 5.38132 22.9637 6.16667 24.2358C6.95202 25.5079 8.07456 26.5304 9.40599 27.1864C10.7374 27.8423 12.224 28.1053 13.6959 27.9452C15.1678 27.7852 16.5656 27.2085 17.7295 26.2812C16.7895 25.5332 16.0296 24.5782 15.5076 23.4884C14.9855 22.3987 14.7148 21.2028 14.7161 19.9913Z" fill="#EB001B"/>
<path d="M30.4953 19.9913C30.4953 21.4922 30.0787 22.9627 29.2932 24.2349C28.5077 25.5071 27.385 26.5296 26.0534 27.1854C24.7218 27.8413 23.235 28.1041 21.7631 27.9438C20.2911 27.7835 18.8933 27.2066 17.7295 26.279C18.6689 25.5305 19.4283 24.5756 19.9505 23.4862C20.4727 22.3968 20.744 21.2014 20.744 19.9902C20.744 18.779 20.4727 17.5836 19.9505 16.4942C19.4283 15.4048 18.6689 14.4499 17.7295 13.7014C18.8935 12.7737 20.2914 12.1968 21.7636 12.0365C23.2358 11.8763 24.7227 12.1393 26.0544 12.7955C27.3861 13.4516 28.5088 14.4744 29.2941 15.7469C30.0794 17.0194 30.4957 18.4903 30.4953 19.9913Z" fill="#F79E1B"/>
<path d="M29.7374 24.9436V24.6859H29.8404V24.6348H29.584V24.6881H29.687V24.9458L29.7374 24.9436ZM30.2436 24.9436V24.6326H30.1757L30.0837 24.8547L29.9916 24.6326H29.9105V24.9436H29.9565V24.7103L30.042 24.9125H30.1012L30.1867 24.7103V24.9458L30.2436 24.9436Z" fill="#F79E1B"/>
</svg>
