<svg width="60" height="60" viewBox="0 0 60 60" fill="none" xmlns="http://www.w3.org/2000/svg">
<rect width="60" height="60" rx="30" fill="#EDF2F7"/>
<path d="M21.3356 35.7177L24.2815 38.6636C27.5058 41.8879 32.4685 42.5686 36.4252 40.45C36.5405 40.395 37.065 40.0969 37.5361 39.7598C38.5564 39.0297 38.6673 37.5359 37.7735 36.642L34.9613 33.8298C34.1617 33.0303 32.8606 33.0302 32.061 33.8298L31.0942 34.7966C30.2928 35.598 28.9956 35.5981 28.194 34.7966L25.2025 31.8051C24.4012 31.0038 24.4009 29.7068 25.2023 28.9051C25.2024 28.9051 25.2024 28.9051 25.2024 28.905L25.2026 28.9048L26.1693 27.9382C26.9689 27.1385 26.9689 25.8375 26.1693 25.0379L23.3571 22.2257C22.4636 21.3321 20.9696 21.4423 20.2393 22.463C17.3667 26.4774 17.7474 32.1296 21.3356 35.7177ZM33.9945 34.7966L36.8067 37.6087C37.1013 37.9034 37.0768 38.4074 36.7405 38.648C36.5776 38.7645 36.4116 38.8747 36.2429 38.9787L32.5442 35.28L33.0277 34.7966C33.2944 34.53 33.728 34.5301 33.9945 34.7966ZM27.2273 35.7633C28.407 36.943 30.2154 37.0708 31.5292 36.1985L34.9596 39.629C31.7028 40.9553 27.8085 40.2571 25.2482 37.6968L22.3022 34.7509C19.742 32.1906 19.0437 28.2962 20.3701 25.0394L23.8005 28.4699C22.9292 29.7823 23.0547 31.5908 24.2358 32.7718L27.2273 35.7633ZM22.3904 23.1925L25.2026 26.0047C25.4697 26.2719 25.4698 26.7043 25.2026 26.9714L24.7191 27.4549L21.0205 23.7563C21.1244 23.5875 21.2346 23.4215 21.3511 23.2586C21.5914 22.923 22.0954 22.8975 22.3904 23.1925Z" fill="#1A202C"/>
<path d="M32.0952 19.7007C36.6185 19.7007 40.2984 23.3806 40.2984 27.9039C40.2984 28.2814 40.6045 28.5875 40.982 28.5875C41.3595 28.5875 41.6656 28.2814 41.6656 27.9039C41.6656 22.6268 37.3723 18.3335 32.0952 18.3335C31.7177 18.3335 31.4116 18.6396 31.4116 19.0171C31.4116 19.3946 31.7177 19.7007 32.0952 19.7007Z" fill="#1A202C"/>
<path d="M32.0957 27.9032C32.0957 27.9032 32.0957 27.9034 32.0957 27.9038C32.0957 28.2813 32.4018 28.5874 32.7793 28.5874C33.1568 28.5874 33.4629 28.2813 33.4629 27.9038C33.4629 27.1499 32.8496 26.5366 32.0957 26.5366C31.7182 26.5366 31.4121 26.8424 31.4121 27.2199C31.4121 27.5974 31.7181 27.9032 32.0957 27.9032Z" fill="#1A202C"/>
<path d="M32.0952 25.1694C33.603 25.1694 34.8296 26.3961 34.8296 27.9038C34.8296 28.2813 35.1357 28.5874 35.5132 28.5874C35.8907 28.5874 36.1968 28.2813 36.1968 27.9038C36.1968 25.6422 34.3568 23.8022 32.0952 23.8022C31.7177 23.8022 31.4116 24.1083 31.4116 24.4858C31.4116 24.8634 31.7177 25.1694 32.0952 25.1694Z" fill="#1A202C"/>
<path d="M32.0952 22.4351C35.1107 22.4351 37.564 24.8883 37.564 27.9038C37.564 28.2813 37.87 28.5874 38.2476 28.5874C38.6251 28.5874 38.9312 28.2813 38.9312 27.9038C38.9312 24.1345 35.8646 21.0679 32.0952 21.0679C31.7177 21.0679 31.4116 21.3739 31.4116 21.7515C31.4116 22.129 31.7177 22.4351 32.0952 22.4351Z" fill="#1A202C"/>
</svg>
