<svg width="14" height="14" viewBox="0 0 14 14" fill="none" xmlns="http://www.w3.org/2000/svg">
<path d="M12.8335 6.16683H7.8335V1.16683C7.8335 0.945816 7.7457 0.733854 7.58942 0.577574C7.43314 0.421294 7.22118 0.333496 7.00016 0.333496C6.77915 0.333496 6.56719 0.421294 6.41091 0.577574C6.25463 0.733854 6.16683 0.945816 6.16683 1.16683V6.16683H1.16683C0.945816 6.16683 0.733854 6.25463 0.577574 6.41091C0.421294 6.56719 0.333496 6.77915 0.333496 7.00016C0.333496 7.22118 0.421294 7.43314 0.577574 7.58942C0.733854 7.7457 0.945816 7.8335 1.16683 7.8335H6.16683V12.8335C6.16683 13.0545 6.25463 13.2665 6.41091 13.4228C6.56719 13.579 6.77915 13.6668 7.00016 13.6668C7.22118 13.6668 7.43314 13.579 7.58942 13.4228C7.7457 13.2665 7.8335 13.0545 7.8335 12.8335V7.8335H12.8335C13.0545 7.8335 13.2665 7.7457 13.4228 7.58942C13.579 7.43314 13.6668 7.22118 13.6668 7.00016C13.6668 6.77915 13.579 6.56719 13.4228 6.41091C13.2665 6.25463 13.0545 6.16683 12.8335 6.16683Z" fill="#38A169"/>
</svg>
