<svg width="60" height="60" viewBox="0 0 60 60" fill="none" xmlns="http://www.w3.org/2000/svg">
<rect width="60" height="60" rx="30" fill="#EDF2F7"/>
<g clip-path="url(#clip0)">
<path d="M19.1203 19.4869C15.0103 23.7376 15.1247 30.5396 19.3754 34.6496C23.4943 38.6321 30.0085 38.6482 34.1479 34.7781L35.2755 35.8684L33.7221 37.4749C33.5122 37.6921 33.518 38.0383 33.7351 38.2484C33.9522 38.4584 34.2985 38.4525 34.5086 38.2354L34.9145 37.8155L41.1288 43.8242C41.346 44.0342 41.6923 44.0283 41.9023 43.8112L44.1972 41.4377C44.3022 41.3291 44.3533 41.1883 44.3509 41.0483C44.3486 40.9084 44.2928 40.7693 44.1842 40.6643L37.9699 34.6556L38.3759 34.2358C38.4808 34.1272 38.5319 33.9863 38.5296 33.8464C38.5272 33.7064 38.4714 33.5674 38.3629 33.4624C38.1457 33.2524 37.7994 33.2582 37.5894 33.4754L36.036 35.0819L34.9084 33.9917C36.713 31.9264 37.5892 29.3357 37.5458 26.7604C37.4997 24.0148 36.4084 21.2868 34.2831 19.2318C30.0323 15.1218 23.2304 15.2362 19.1203 19.4869ZM43.0305 41.0705L41.4961 42.6575L37.8489 39.131L39.3833 37.544L43.0305 41.0705ZM38.5969 36.7836L37.0624 38.3706L35.675 37.0291L37.2095 35.4421L38.5969 36.7836ZM33.5226 20.0183C37.3397 23.7089 37.4425 29.817 33.7517 33.634C30.0609 37.4511 23.9529 37.5539 20.1359 33.8631C18.2274 32.0178 17.2474 29.5681 17.2059 27.1026C17.1645 24.6371 18.0615 22.1558 19.9068 20.2474C23.5975 16.4303 29.7056 16.3275 33.5226 20.0183Z" fill="#1A202C"/>
<path d="M31.8962 20.9752C31.6841 21.0677 31.5494 21.2905 31.5693 21.5216C31.5888 21.7458 31.747 21.9404 31.9638 22.0025C32.1795 22.0643 32.4176 21.9842 32.5519 21.8042C32.6896 21.6195 32.6954 21.3645 32.5685 21.1728C32.4245 20.9553 32.1349 20.8709 31.8962 20.9752Z" fill="#1A202C"/>
<path d="M20.9715 21.2772C19.4608 22.8396 18.6491 24.8999 18.6857 27.0785C18.7224 29.2571 19.6031 31.2888 21.1654 32.7995C24.3956 35.9228 29.5645 35.8359 32.6877 32.6057C34.2238 31.017 35.0113 28.9167 34.9757 26.8004C34.9554 25.5907 34.666 24.3756 34.0938 23.2481C33.9571 22.9786 33.628 22.8711 33.3586 23.0078C33.0891 23.1445 32.9817 23.4738 33.1184 23.743C34.4805 26.4276 33.9914 29.6836 31.9013 31.8453C29.1974 34.6418 24.7224 34.717 21.926 32.013C20.5736 30.7055 19.8113 28.9465 19.7796 27.0601C19.7479 25.1737 20.4505 23.39 21.7581 22.0377C23.8521 19.8719 27.0944 19.2757 29.8261 20.554C30.0997 20.6821 30.4252 20.5641 30.5533 20.2905C30.6814 20.0169 30.5634 19.6913 30.2898 19.5632C27.135 18.0869 23.3903 18.7757 20.9715 21.2772Z" fill="#1A202C"/>
<path d="M25.5334 31.3916C25.3199 31.3903 25.1126 31.3197 24.9427 31.1904L24.0371 30.5166C23.8281 30.3537 23.6894 30.1169 23.6496 29.8549C23.6097 29.5929 23.6717 29.3256 23.8227 29.1079C23.9027 28.9898 23.9535 28.8545 23.9709 28.7131C23.9884 28.5716 23.9721 28.428 23.9234 28.2941L23.8971 28.2241C23.8631 28.1029 23.8011 27.9914 23.7159 27.8986C23.6308 27.8059 23.525 27.7345 23.4071 27.6904L23.3371 27.6904C23.0815 27.6044 22.8702 27.4211 22.749 27.1803C22.6277 26.9395 22.6064 26.6606 22.6896 26.4041L23.0484 25.2666C23.0814 25.1348 23.1422 25.0116 23.2267 24.9052C23.3112 24.7988 23.4175 24.7117 23.5384 24.6497C23.6509 24.5917 23.7741 24.5572 23.9005 24.5481C24.0268 24.5391 24.1537 24.5558 24.2734 24.5972C24.4037 24.6411 24.5427 24.6525 24.6785 24.6303C24.8142 24.6082 24.9424 24.5533 25.0521 24.4704L25.109 24.4266C25.2082 24.3474 25.2885 24.2469 25.3437 24.1326C25.399 24.0183 25.4279 23.893 25.4284 23.766L25.4284 23.661C25.4272 23.3933 25.5318 23.136 25.7194 22.945C25.9071 22.7541 26.1626 22.6451 26.4302 22.6416L27.5459 22.6416C27.6761 22.642 27.805 22.668 27.9251 22.7183C28.0452 22.7686 28.1542 22.8422 28.2459 22.9347C28.4385 23.1306 28.5455 23.395 28.5434 23.6697L28.5434 23.7922C28.5411 23.9129 28.5673 24.0323 28.6197 24.141C28.6722 24.2497 28.7494 24.3445 28.8452 24.4179L28.8934 24.4529C28.9915 24.5265 29.1061 24.5753 29.2272 24.5951C29.3483 24.6149 29.4724 24.6051 29.589 24.5666L29.7377 24.5185C29.8638 24.4767 29.9969 24.4607 30.1292 24.4715C30.2616 24.4823 30.3904 24.5197 30.508 24.5813C30.6256 24.643 30.7295 24.7277 30.8137 24.8304C30.8978 24.9331 30.9604 25.0517 30.9977 25.1791L31.3434 26.2816C31.4233 26.5364 31.4015 26.8123 31.2824 27.0513C31.1633 27.2903 30.9562 27.4739 30.7046 27.5635L30.6171 27.5941C30.4884 27.6362 30.372 27.7093 30.2782 27.807C30.1844 27.9046 30.116 28.0238 30.079 28.1541C30.0442 28.2752 30.0359 28.4024 30.0548 28.527C30.0737 28.6516 30.1192 28.7706 30.1884 28.876L30.3021 29.0422C30.453 29.2612 30.5143 29.5295 30.4737 29.7923C30.433 30.055 30.2933 30.2923 30.0834 30.4554L29.204 31.1335C29.0977 31.2147 28.976 31.2734 28.8462 31.3058C28.7165 31.3382 28.5815 31.3437 28.4495 31.322C28.3175 31.3003 28.1914 31.2518 28.0789 31.1795C27.9664 31.1072 27.8698 31.0126 27.7952 30.9016L27.7427 30.8272C27.6711 30.7195 27.5733 30.6318 27.4585 30.5721C27.3438 30.5124 27.2158 30.4828 27.0865 30.486C26.9631 30.4892 26.8422 30.5213 26.7335 30.5798C26.6248 30.6384 26.5314 30.7216 26.4609 30.8229L26.3602 30.9672C26.2856 31.079 26.1889 31.1743 26.076 31.2473C25.9632 31.3203 25.8365 31.3694 25.704 31.3916C25.6472 31.3972 25.5901 31.3972 25.5334 31.3916ZM23.6915 26.8504C23.9385 26.9384 24.1615 27.0833 24.3423 27.2733C24.5232 27.4632 24.6569 27.693 24.7327 27.9441L24.7327 27.9966C24.8272 28.2576 24.8582 28.5374 24.8232 28.8128C24.7882 29.0881 24.6882 29.3513 24.5315 29.5804C24.5038 29.6109 24.4885 29.6507 24.4885 29.6919C24.4885 29.7331 24.5038 29.7729 24.5315 29.8035L25.4721 30.5166C25.4844 30.5262 25.4986 30.5331 25.5137 30.5368C25.5289 30.5405 25.5447 30.541 25.56 30.5381C25.5753 30.5352 25.5899 30.529 25.6026 30.52C25.6154 30.511 25.6261 30.4994 25.634 30.486L25.7346 30.3416C25.8864 30.1223 26.089 29.9431 26.3253 29.8193C26.5615 29.6955 26.8242 29.6309 27.0909 29.6309C27.3575 29.6309 27.6202 29.6955 27.8565 29.8193C28.0927 29.9431 28.2953 30.1223 28.4471 30.3416L28.4996 30.4204C28.5184 30.447 28.5465 30.4658 28.5784 30.4729C28.593 30.475 28.6079 30.4742 28.6222 30.4704C28.6364 30.4667 28.6498 30.46 28.6615 30.451L29.5627 29.7685C29.5943 29.7434 29.615 29.7073 29.6207 29.6674C29.6264 29.6275 29.6166 29.587 29.5934 29.5541L29.4796 29.3879C29.3314 29.1717 29.2336 28.9251 29.1935 28.6661C29.1533 28.4071 29.1719 28.1424 29.2477 27.8916C29.3246 27.628 29.4637 27.3866 29.6533 27.1879C29.8428 26.9892 30.0774 26.8389 30.3371 26.7497L30.4246 26.7191C30.4611 26.7045 30.4903 26.6761 30.5059 26.64C30.5214 26.6039 30.5221 26.5632 30.5077 26.5266L30.1665 25.4372C30.1583 25.4182 30.1463 25.401 30.1313 25.3867C30.1162 25.3724 30.0984 25.3613 30.079 25.3541C30.0661 25.3476 30.0519 25.3442 30.0374 25.3442C30.023 25.3442 30.0087 25.3476 29.9959 25.3541L29.8471 25.4022C29.5955 25.4853 29.3274 25.506 29.0661 25.4625C28.8047 25.4191 28.5577 25.3128 28.3465 25.1529L28.329 25.1135C28.1263 24.96 27.9619 24.7616 27.8488 24.5338C27.7357 24.3061 27.6769 24.0552 27.6771 23.801L27.6771 23.6654C27.6779 23.6232 27.6622 23.5824 27.6334 23.5516C27.6082 23.5289 27.5754 23.5164 27.5415 23.5166L26.4302 23.5166C26.4124 23.5177 26.395 23.5223 26.3789 23.5302C26.3629 23.5381 26.3486 23.549 26.3368 23.5624C26.325 23.5758 26.316 23.5915 26.3103 23.6084C26.3045 23.6253 26.3022 23.6432 26.3034 23.661L26.3034 23.7704C26.3034 24.0316 26.2434 24.2893 26.1281 24.5237C26.0128 24.758 25.8453 24.9628 25.6384 25.1222L25.5815 25.166C25.3582 25.3359 25.0966 25.4484 24.8197 25.4934C24.5427 25.5384 24.2589 25.5146 23.9934 25.4241C23.9735 25.4174 23.952 25.4174 23.9321 25.4241C23.9074 25.4391 23.8888 25.4623 23.8796 25.4897L23.5165 26.6316C23.5038 26.6705 23.5068 26.7128 23.5248 26.7495C23.5427 26.7863 23.5743 26.8146 23.6127 26.8285L23.6915 26.8504Z" fill="#1A202C"/>
<path d="M27.0161 28.5479C26.7133 28.5479 26.4172 28.458 26.1654 28.2898C25.9136 28.1215 25.7173 27.8824 25.6014 27.6026C25.4855 27.3228 25.4552 27.0149 25.5143 26.7179C25.5734 26.4208 25.7192 26.148 25.9334 25.9338C26.1475 25.7197 26.4203 25.5739 26.7174 25.5148C27.0144 25.4557 27.3223 25.486 27.6021 25.6019C27.8819 25.7178 28.121 25.9141 28.2893 26.1659C28.4576 26.4177 28.5474 26.7138 28.5474 27.0166C28.5474 27.4227 28.386 27.8122 28.0989 28.0994C27.8117 28.3865 27.4222 28.5479 27.0161 28.5479ZM27.0161 26.3604C26.8863 26.3604 26.7594 26.3988 26.6515 26.471C26.5436 26.5431 26.4595 26.6456 26.4098 26.7655C26.3601 26.8854 26.3472 27.0173 26.3725 27.1446C26.3978 27.2719 26.4603 27.3889 26.5521 27.4806C26.6439 27.5724 26.7608 27.6349 26.8881 27.6602C27.0154 27.6856 27.1473 27.6726 27.2673 27.6229C27.3872 27.5732 27.4897 27.4891 27.5618 27.3812C27.6339 27.2733 27.6724 27.1464 27.6724 27.0166C27.6724 26.8426 27.6032 26.6756 27.4802 26.5526C27.3571 26.4295 27.1902 26.3604 27.0161 26.3604Z" fill="#1A202C"/>
</g>
<defs>
<clipPath id="clip0">
<rect width="28" height="28" fill="white" transform="translate(16.4038 44.4004) rotate(-90.9638)"/>
</clipPath>
</defs>
</svg>
