<svg width="60" height="60" viewBox="0 0 60 60" fill="none" xmlns="http://www.w3.org/2000/svg">
<rect width="60" height="60" rx="30" fill="#EDF2F7"/>
<path d="M43.2448 36.4038C43.0502 35.3475 42.5441 34.3866 41.7809 33.6248C40.6341 32.4799 39.1517 32.0319 37.6066 32.3631C37.4668 32.3929 37.3144 32.346 37.2087 32.2406L33.0483 28.0873L38.7167 22.4288L39.712 23.4223L43.3261 19.8146L40.1763 16.6702L36.5622 20.278L37.6078 21.3217L31.9394 26.9803L27.8156 22.8637C27.7078 22.7561 27.6614 22.6015 27.6942 22.4598C28.058 20.8897 27.615 19.3827 26.4468 18.2165C25.6837 17.4547 24.721 16.9494 23.6629 16.7552C22.6304 16.5657 21.5764 16.6828 20.6147 17.0938L19.5495 17.5491L22.4721 20.4667L21.208 21.7286L18.2853 18.811L17.8292 19.8744C17.4175 20.8345 17.3002 21.8867 17.49 22.9174C17.6846 23.9736 18.1907 24.9346 18.9539 25.6964C20.1007 26.8412 21.5831 27.2893 23.1283 26.9581C23.2679 26.9281 23.4203 26.975 23.5261 27.0806L27.6825 31.2298L26.2618 32.648L24.9282 31.3166L17.9209 37.0428L17.9047 37.0565C17.1551 37.7036 16.7047 38.6418 16.6688 39.6304C16.633 40.6191 17.0143 41.5873 17.7151 42.2869C18.3856 42.9562 19.3025 43.3337 20.2481 43.3337C20.2907 43.3337 20.3335 43.3329 20.3762 43.3314C21.3665 43.2956 22.3064 42.8459 22.9546 42.0976L28.7044 35.0864L27.3708 33.7551L28.7915 32.3369L32.9192 36.4575C33.027 36.565 33.0735 36.7198 33.0407 36.8613C32.6768 38.4314 33.1198 39.9384 34.288 41.1046C35.0511 41.8664 36.0138 42.3717 37.0719 42.5659C37.3931 42.6248 37.7162 42.6541 38.0381 42.6541C38.7511 42.6541 39.4575 42.5104 40.1201 42.2272L41.1853 41.772L38.2626 38.8544L39.5268 37.5924L42.4495 40.5101L42.9056 39.4467C43.3173 38.4867 43.4346 37.4345 43.2448 36.4038ZM40.1763 18.8844L41.1081 19.8146L39.7121 21.2083L38.7802 20.278L40.1763 18.8844ZM21.762 41.0808C21.3928 41.5029 20.8809 41.7464 20.3195 41.7667C20.0298 41.7772 19.749 41.727 19.49 41.6221L21.4358 39.6797C21.742 39.374 21.742 38.8784 21.4358 38.5727C21.1296 38.2669 20.633 38.2669 20.3268 38.5727L18.381 40.5151C18.276 40.2566 18.2257 39.9763 18.2362 39.687C18.2565 39.1266 18.5004 38.6156 18.9233 38.247L22.3132 35.4768L24.5371 37.6968L21.762 41.0808ZM25.5354 36.4793L23.5328 34.4802L24.823 33.4258L26.5915 35.1914L25.5354 36.4793ZM41.7594 37.6071L39.5268 35.3784L36.0447 38.8544L38.2773 41.0832C37.2256 41.1537 36.1754 40.7746 35.397 39.9976C34.408 39.0104 34.4006 37.9391 34.5687 37.2142C34.7247 36.5407 34.5227 35.844 34.0282 35.3505L24.6351 25.9736C24.2515 25.5907 23.7424 25.3829 23.2178 25.3829C23.0786 25.3829 22.9382 25.3975 22.7989 25.4274C21.7773 25.6462 20.8314 25.3565 20.0628 24.5894C19.2845 23.8124 18.9047 22.7641 18.9753 21.7141L21.208 23.9428L24.69 20.4668L22.4575 18.2381C23.5093 18.1674 24.5594 18.5467 25.3378 19.3237C26.3268 20.3109 26.3341 21.3822 26.1662 22.107C26.01 22.7804 26.2121 23.4772 26.7066 23.9708L36.0998 33.3478C36.5851 33.8322 37.2717 34.0364 37.936 33.8939C38.9573 33.6749 39.9035 33.9647 40.672 34.7319C41.4503 35.5089 41.8302 36.5571 41.7594 37.6071Z" fill="#1A202C"/>
</svg>
