<svg width="100" height="40" viewBox="0 0 100 40" fill="none" xmlns="http://www.w3.org/2000/svg">
<path d="M46.6666 27.7691H42.6162L45.1496 12.2806H49.1997L46.6666 27.7691Z" fill="#00579F"/>
<path d="M61.3496 12.6593C60.5507 12.3459 59.2836 11.9999 57.7168 11.9999C53.717 11.9999 50.9003 14.1088 50.883 17.124C50.8498 19.3486 52.8997 20.5842 54.4328 21.3259C55.9998 22.0839 56.5325 22.5786 56.5325 23.2542C56.5166 24.2918 55.2663 24.7701 54.1001 24.7701C52.483 24.7701 51.6166 24.5235 50.2998 23.9462L49.7665 23.6988L49.1997 27.1756C50.1497 27.6035 51.8999 27.9832 53.717 27.9999C57.9669 27.9999 60.7337 25.9236 60.7665 22.7104C60.7826 20.9473 59.7002 19.5963 57.3666 18.4923C55.95 17.7836 55.0824 17.3058 55.0824 16.5807C55.099 15.9215 55.8162 15.2463 57.4154 15.2463C58.7321 15.2132 59.6996 15.5262 60.4325 15.8394L60.7988 16.0038L61.3496 12.6593Z" fill="#00579F"/>
<path d="M66.7329 22.2821C67.0664 21.3923 68.3499 17.9485 68.3499 17.9485C68.3331 17.9816 68.6828 17.0423 68.8828 16.4657L69.1659 17.8003C69.1659 17.8003 69.9329 21.5077 70.0995 22.2821C69.4665 22.2821 67.5329 22.2821 66.7329 22.2821ZM71.7325 12.2806H68.5996C67.6334 12.2806 66.8994 12.5605 66.4826 13.5657L60.4663 27.7688H64.7162C64.7162 27.7688 65.4159 25.8572 65.5663 25.4455C66.0325 25.4455 70.1668 25.4455 70.7666 25.4455C70.8829 25.9893 71.2499 27.7688 71.2499 27.7688H75.0001L71.7325 12.2806Z" fill="#00579F"/>
<path d="M39.2334 12.2806L35.2667 22.8423L34.8333 20.7002C34.0999 18.2286 31.8 15.5433 29.2334 14.208L32.8667 27.7526H37.1498L43.5163 12.2806H39.2334Z" fill="#00579F"/>
<path d="M31.5833 12.2806H25.0667L25 12.5936C30.0834 13.8789 33.45 16.9771 34.8332 20.7009L33.4165 13.5826C33.1833 12.5934 32.4666 12.3133 31.5833 12.2806Z" fill="#FAA61A"/>
</svg>
